<?xml version="1.0" standalone="no"?>
<!DOCTYPE svg PUBLIC "-//W3C//DTD SVG 20010904//EN"
 "http://www.w3.org/TR/2001/REC-SVG-20010904/DTD/svg10.dtd">
<svg version="1.0" xmlns="http://www.w3.org/2000/svg"
 width="3005.000000pt" height="3005.000000pt" viewBox="0 0 3005.000000 3005.000000"
 preserveAspectRatio="xMidYMid meet">
<metadata>
Created by potrace 1.16, written by Peter Selinger 2001-2019
</metadata>
<g transform="translate(0.000000,3005.000000) scale(0.100000,-0.100000)"
fill="#000000" stroke="none">
<path d="M13793 19679 c-18 -5 -50 -26 -71 -47 -21 -20 -262 -343 -535 -717
l-498 -680 -1114 -1085 -1114 -1085 -1 -535 0 -535 -231 -315 c-127 -173 -238
-331 -246 -350 -21 -49 -19 -129 5 -176 11 -22 122 -178 246 -348 l226 -308 0
-417 1 -416 950 -925 951 -925 661 -905 c363 -498 677 -921 698 -941 70 -68
195 -75 274 -15 18 14 256 331 530 705 l497 681 1194 1162 1193 1163 1 411 0
411 23 34 c13 19 117 162 231 318 115 156 217 304 228 329 27 61 20 138 -18
196 -15 22 -126 175 -246 340 l-218 298 0 532 -1 531 -767 747 c-422 410
-1032 1005 -1357 1322 l-590 575 -335 458 c-371 506 -379 515 -477 519 -32 2
-73 -1 -90 -7z m883 -1309 c428 -586 778 -1072 778 -1080 0 -13 -1540 -2128
-1578 -2168 -11 -11 -162 190 -807 1072 -436 596 -795 1088 -796 1093 -2 4
333 467 743 1028 410 561 768 1051 796 1089 48 66 51 68 68 50 10 -11 368
-498 796 -1084z m-2409 -2605 c253 -346 607 -830 785 -1074 l326 -444 -133
-181 c-73 -100 -430 -588 -794 -1086 -364 -498 -665 -906 -670 -908 -11 -4
-1597 2166 -1593 2180 1 6 359 498 795 1093 734 1004 793 1082 808 1067 9 -9
223 -300 476 -647z m4310 10 c253 -346 607 -830 787 -1075 179 -245 325 -450
323 -456 -1 -6 -359 -499 -796 -1097 -780 -1066 -795 -1085 -811 -1064 -29 38
-1566 2141 -1574 2154 -4 8 285 411 791 1103 615 841 800 1087 809 1077 6 -6
218 -295 471 -642z m-2036 -3200 c353 -484 705 -965 782 -1069 127 -172 138
-192 127 -210 -15 -24 -1541 -2113 -1568 -2146 -18 -22 -24 -14 -816 1069
-510 699 -795 1095 -790 1103 6 10 1341 1837 1547 2117 38 51 40 53 57 35 10
-11 307 -415 661 -899z"/>
</g>
</svg>
